<svg xmlns="http://www.w3.org/2000/svg" version="1.1" xmlns:xlink="http://www.w3.org/1999/xlink" xmlns:svgjs="http://svgjs.dev/svgjs" width="40" height="44" viewBox="0 0 1500 1639"><g transform="matrix(1,0,0,1,1.471650008313759,0.6635627530364445)"><svg viewBox="0 0 226 247" data-background-color="#ffffff" preserveAspectRatio="xMidYMid meet" height="1639" width="1500" xmlns="http://www.w3.org/2000/svg" xmlns:xlink="http://www.w3.org/1999/xlink"><g id="tight-bounds" transform="matrix(1,0,0,1,-0.2217286012526074,-0.09999999999999432)"><svg viewBox="0 0 226.44345720250521 247.2" height="247.2" width="226.44345720250521"><g><svg></svg></g><g><svg viewBox="0 0 226.44345720250521 247.2" height="247.2" width="226.44345720250521"><g transform="matrix(1,0,0,1,0,47.215199999999996)"><svg viewBox="0 0 226.44345720250521 152.7696" height="152.7696" width="226.44345720250521"><g><svg viewBox="0 0 226.44345720250521 152.7696" height="152.7696" width="226.44345720250521"><g><svg viewBox="0 0 226.44345720250521 152.7696" height="152.7696" width="226.44345720250521"><g><svg viewBox="0 0 226.44345720250521 152.7696" height="152.7696" width="226.44345720250521"><g id="textblocktransform"><svg viewBox="0 0 226.44345720250521 152.7696" height="152.7696" width="226.44345720250521" id="textblock"><g><svg viewBox="0 0 226.44345720250521 152.7696" height="152.7696" width="226.44345720250521"><g transform="matrix(1,0,0,1,0,0)"><svg width="226.44345720250521" viewBox="2.2 -34.47 52 35.08" height="152.7696" data-palette-color="#4790fc"><path d="M13.96 0.61L13.96 0.61Q10.33 0.61 7.35-0.74 4.37-2.1 2.2-4.42L2.2-4.42 4.47-7.1Q6.27-5.13 8.79-4.03 11.3-2.93 14.01-2.93L14.01-2.93Q17.46-2.93 19.38-4.49 21.31-6.05 21.31-8.59L21.31-8.59Q21.31-10.4 20.56-11.49 19.8-12.57 18.51-13.29 17.21-14.01 15.6-14.72L15.6-14.72 10.72-16.89Q9.16-17.58 7.57-18.65 5.98-19.73 4.92-21.41 3.86-23.1 3.86-25.56L3.86-25.56Q3.86-28.15 5.22-30.15 6.59-32.15 8.97-33.31 11.35-34.47 14.36-34.47L14.36-34.47Q17.46-34.47 20-33.3 22.53-32.13 24.27-30.4L24.27-30.4 22.05-27.71Q20.51-29.17 18.55-30.04 16.6-30.91 14.36-30.91L14.36-30.91Q11.47-30.91 9.7-29.52 7.93-28.13 7.93-25.81L7.93-25.81Q7.93-24.15 8.79-23.07 9.64-22 10.94-21.3 12.23-20.61 13.55-20.04L13.55-20.04 18.38-17.97Q20.36-17.14 21.95-15.99 23.54-14.84 24.46-13.15 25.39-11.45 25.39-8.91L25.39-8.91Q25.39-6.25 24-4.09 22.61-1.93 20.06-0.66 17.5 0.61 13.96 0.61ZM36.11 0L32.1 0 32.1-33.84 41.57-33.84Q45.36-33.84 48.2-32.9 51.05-31.96 52.62-29.8 54.2-27.64 54.2-23.95L54.2-23.95Q54.2-18.65 50.77-16.13 47.34-13.6 41.77-13.6L41.77-13.6 36.11-13.6 36.11 0ZM36.11-30.54L36.11-16.85 41.21-16.85Q45.77-16.85 47.98-18.54 50.19-20.24 50.19-23.95L50.19-23.95Q50.19-27.71 47.9-29.13 45.6-30.54 41.01-30.54L41.01-30.54 36.11-30.54Z" opacity="1" transform="matrix(1,0,0,1,0,0)" fill="#4790fc" class="wordmark-text-0" data-fill-palette-color="primary" id="text-0"></path></svg></g></svg></g></svg></g></svg></g><g></g></svg></g></svg></g></svg></g><path d="M0 41.215L0 1 226.443 1 226.443 41.215 212.667 41.215 212.667 14.777 13.777 14.777 13.777 41.215 0 41.215M0 205.985L0 246.2 226.443 246.2 226.443 205.985 212.667 205.985 212.667 232.423 13.777 232.423 13.777 205.985 0 205.985" fill="#4790fc" stroke="transparent" data-fill-palette-color="tertiary"></path></svg></g><defs></defs></svg><rect width="226.44345720250521" height="247.2" fill="none" stroke="none" visibility="hidden"></rect></g></svg></g></svg>